<svg width="50" height="10" viewBox="0 0 50 10" fill="none" xmlns="http://www.w3.org/2000/svg">
<path d="M3.7424 10C2.93921 10 2.26211 9.86873 1.7111 9.60619C1.16008 9.33427 0.739807 8.98265 0.450288 8.55134C0.170109 8.12002 0.0206799 7.66057 0.00200127 7.173C-0.00733802 7.08861 0.0160103 7.02297 0.0720462 6.97609C0.137421 6.91983 0.212136 6.8917 0.29619 6.8917H1.59902C1.70176 6.8917 1.78581 6.91514 1.85118 6.96203C1.9259 6.99953 1.98194 7.06986 2.01929 7.173C2.11269 7.45429 2.24344 7.68401 2.41154 7.86217C2.58899 8.04032 2.78979 8.17159 3.01393 8.25598C3.24741 8.34037 3.49023 8.38256 3.7424 8.38256C4.07861 8.38256 4.38214 8.31693 4.65298 8.18565C4.93316 8.04501 5.1573 7.83873 5.32541 7.56681C5.49352 7.29489 5.57757 6.96203 5.57757 6.56821C5.57757 6.22129 5.49819 5.92124 5.33942 5.66807C5.18065 5.41491 4.96117 5.218 4.681 5.07736C4.41016 4.92733 4.09729 4.85232 3.7424 4.85232C3.48089 4.85232 3.26609 4.88514 3.09798 4.95077C2.92988 5.01641 2.78512 5.09142 2.66371 5.17581C2.55163 5.2602 2.4489 5.33521 2.35551 5.40085C2.27145 5.46648 2.17339 5.4993 2.06132 5.4993H0.772494C0.688441 5.4993 0.613726 5.47117 0.548351 5.41491C0.492315 5.34927 0.464297 5.27426 0.464297 5.18987L0.954611 0.379747C0.96395 0.257853 1.00598 0.164088 1.08069 0.0984534C1.15541 0.0328179 1.24413 0 1.34686 0H6.61423C6.70763 0 6.78701 0.0328179 6.85239 0.0984534C6.91776 0.164088 6.95045 0.243788 6.95045 0.337553V1.27989C6.95045 1.37365 6.91776 1.45335 6.85239 1.51899C6.78701 1.58462 6.70763 1.61744 6.61423 1.61744H2.56564L2.3415 3.90999C2.50961 3.79747 2.73375 3.68964 3.01393 3.5865C3.29411 3.48336 3.68169 3.43179 4.17667 3.43179C4.62496 3.43179 5.0499 3.5068 5.45149 3.65682C5.86242 3.79747 6.22665 4.00844 6.54419 4.28973C6.86172 4.56165 7.10922 4.89452 7.28666 5.28833C7.47345 5.67276 7.56684 6.11346 7.56684 6.61041C7.56684 7.29489 7.40807 7.8903 7.09054 8.39662C6.773 8.90295 6.32938 9.29677 5.75969 9.57806C5.18999 9.85935 4.51756 10 3.7424 10Z" fill="white"/>
<path d="M9.36163 4.92264C9.26824 4.92264 9.18885 4.88983 9.12348 4.82419C9.0581 4.75856 9.02542 4.67886 9.02542 4.58509V3.24895C9.02542 3.1458 9.0581 3.06142 9.12348 2.99578C9.18885 2.93015 9.26824 2.89733 9.36163 2.89733H10.7485C10.8513 2.89733 10.9353 2.93015 11.0007 2.99578C11.0661 3.06142 11.0987 3.1458 11.0987 3.24895V4.58509C11.0987 4.67886 11.0661 4.75856 11.0007 4.82419C10.9353 4.88983 10.8513 4.92264 10.7485 4.92264H9.36163ZM9.36163 9.84529C9.26824 9.84529 9.18885 9.81247 9.12348 9.74684C9.0581 9.6812 9.02542 9.6015 9.02542 9.50774V8.17159C9.02542 8.06845 9.0581 7.98406 9.12348 7.91843C9.18885 7.85279 9.26824 7.81997 9.36163 7.81997H10.7485C10.8513 7.81997 10.9353 7.85279 11.0007 7.91843C11.0661 7.98406 11.0987 8.06845 11.0987 8.17159V9.50774C11.0987 9.6015 11.0661 9.6812 11.0007 9.74684C10.9353 9.81247 10.8513 9.84529 10.7485 9.84529H9.36163Z" fill="white"/>
<path d="M15.8676 9.84529C15.7649 9.84529 15.6808 9.81247 15.6154 9.74684C15.5594 9.6812 15.5314 9.6015 15.5314 9.50774V2.22222L13.402 3.86779C13.318 3.92405 13.2339 3.94749 13.1499 3.93812C13.0658 3.91936 12.9911 3.86779 12.9257 3.7834L12.3373 3.02391C12.2813 2.93952 12.2579 2.85045 12.2673 2.75668C12.286 2.66292 12.3373 2.5879 12.4214 2.53165L15.5594 0.0984534C15.6154 0.0515711 15.6715 0.0234415 15.7275 0.0140646C15.7835 0.00468829 15.8442 0 15.9096 0H17.1424C17.2358 0 17.3152 0.0328179 17.3806 0.0984534C17.4459 0.164088 17.4786 0.243788 17.4786 0.337553V9.50774C17.4786 9.6015 17.4459 9.6812 17.3806 9.74684C17.3152 9.81247 17.2358 9.84529 17.1424 9.84529H15.8676Z" fill="white"/>
<path d="M22.8285 9.98594C22.1748 9.98594 21.6097 9.90624 21.1334 9.74684C20.6571 9.58744 20.2602 9.38115 19.9427 9.12799C19.6345 8.86545 19.401 8.58415 19.2422 8.28411C19.0835 7.97468 18.9994 7.66995 18.9901 7.3699C18.9901 7.28551 19.0181 7.21988 19.0741 7.173C19.1395 7.11674 19.2142 7.08861 19.2983 7.08861H20.5591C20.6525 7.08861 20.7318 7.10736 20.7972 7.14487C20.8626 7.18237 20.9186 7.25738 20.9653 7.3699C21.0494 7.62307 21.1848 7.82466 21.3716 7.97468C21.5677 8.12471 21.7919 8.23254 22.044 8.29817C22.2962 8.35443 22.5623 8.38256 22.8425 8.38256C23.4029 8.38256 23.8465 8.25129 24.1734 7.98875C24.5096 7.71683 24.6777 7.3324 24.6777 6.83544C24.6777 6.33849 24.5236 5.98218 24.2154 5.76653C23.9072 5.54149 23.4776 5.42897 22.9266 5.42897H21.4837C21.3809 5.42897 21.2969 5.40084 21.2315 5.34459C21.1661 5.27895 21.1334 5.19456 21.1334 5.09142V4.5007C21.1334 4.40694 21.1521 4.32724 21.1895 4.2616C21.2362 4.18659 21.2829 4.12565 21.3296 4.07876L23.8372 1.61744H19.8306C19.7279 1.61744 19.6438 1.58462 19.5784 1.51899C19.5224 1.45335 19.4944 1.37365 19.4944 1.27989V0.351618C19.4944 0.248476 19.5224 0.164088 19.5784 0.0984534C19.6438 0.0328179 19.7279 0 19.8306 0H25.8404C25.9432 0 26.0272 0.0328179 26.0926 0.0984534C26.158 0.164088 26.1907 0.248476 26.1907 0.351618V1.1955C26.1907 1.27989 26.172 1.3549 26.1346 1.42053C26.0973 1.48617 26.0552 1.54243 26.0086 1.58931L23.585 4.09283L23.7531 4.10689C24.3228 4.15377 24.8271 4.28505 25.2661 4.5007C25.7144 4.70699 26.0599 5.01172 26.3027 5.41491C26.5549 5.8181 26.681 6.32443 26.681 6.9339C26.681 7.5715 26.5129 8.12002 26.1767 8.57947C25.8498 9.02954 25.3968 9.37647 24.8178 9.62025C24.2388 9.86404 23.5757 9.98594 22.8285 9.98594Z" fill="white"/>
<path d="M31.9259 9.84529C31.8325 9.84529 31.7531 9.81247 31.6878 9.74684C31.6224 9.6812 31.5897 9.6015 31.5897 9.50774V0.351618C31.5897 0.248476 31.6224 0.164088 31.6878 0.0984534C31.7531 0.0328179 31.8325 0 31.9259 0H35.6803C36.4088 0 37.0439 0.117206 37.5855 0.351618C38.1272 0.576653 38.5475 0.923582 38.8463 1.39241C39.1452 1.85185 39.2946 2.4285 39.2946 3.12236C39.2946 3.8256 39.1452 4.40694 38.8463 4.86639C38.5475 5.31646 38.1272 5.65401 37.5855 5.87904C37.0439 6.10408 36.4088 6.2166 35.6803 6.2166H33.593V9.50774C33.593 9.6015 33.5603 9.6812 33.4949 9.74684C33.4389 9.81247 33.3595 9.84529 33.2568 9.84529H31.9259ZM33.565 4.65542H35.6103C36.152 4.65542 36.5676 4.52883 36.8571 4.27567C37.1466 4.01313 37.2914 3.62869 37.2914 3.12236C37.2914 2.65354 37.1559 2.27848 36.8851 1.99719C36.6143 1.70652 36.1893 1.56118 35.6103 1.56118H33.565V4.65542Z" fill="white"/>
<path d="M41.1744 9.84529C41.0716 9.84529 40.9876 9.81247 40.9222 9.74684C40.8568 9.6812 40.8241 9.6015 40.8241 9.50774V0.351618C40.8241 0.248476 40.8568 0.164088 40.9222 0.0984534C40.9876 0.0328179 41.0716 0 41.1744 0H42.2811C42.4118 0 42.5099 0.0375059 42.5752 0.112518C42.6406 0.178153 42.6826 0.229723 42.7013 0.267229L45.4051 5.33052L48.1368 0.267229C48.1555 0.229723 48.1975 0.178153 48.2629 0.112518C48.3283 0.0375059 48.4263 0 48.5571 0H49.6498C49.7525 0 49.8366 0.0328179 49.9019 0.0984534C49.9673 0.164088 50 0.248476 50 0.351618V9.50774C50 9.6015 49.9673 9.6812 49.9019 9.74684C49.8366 9.81247 49.7525 9.84529 49.6498 9.84529H48.473C48.3703 9.84529 48.2862 9.81247 48.2209 9.74684C48.1648 9.6812 48.1368 9.6015 48.1368 9.50774V3.41772L46.1756 7.173C46.1289 7.25738 46.0681 7.3324 45.9934 7.39803C45.9187 7.45429 45.8207 7.48242 45.6992 7.48242H45.1249C44.9941 7.48242 44.8914 7.45429 44.8167 7.39803C44.7513 7.3324 44.6953 7.25738 44.6486 7.173L42.6873 3.41772V9.50774C42.6873 9.6015 42.6546 9.6812 42.5893 9.74684C42.5239 9.81247 42.4445 9.84529 42.3511 9.84529H41.1744Z" fill="white"/>
</svg>
