<svg width="25" height="10" viewBox="0 0 25 10" fill="none" xmlns="http://www.w3.org/2000/svg">
<path d="M1.63714 9.86111C1.55529 9.86111 1.48707 9.83333 1.4325 9.77778C1.38702 9.71296 1.36429 9.63889 1.36429 9.55556C1.36429 9.52778 1.37338 9.48611 1.39157 9.43056L4.78864 1.34722H0.313786C0.222833 1.34722 0.145524 1.31944 0.0818571 1.26389C0.0272857 1.19907 0 1.12037 0 1.02778V0.472222C0 0.37037 0.0272857 0.291667 0.0818571 0.236111C0.145524 0.171296 0.222833 0.138889 0.313786 0.138889H5.90736C6.0165 0.138889 6.09836 0.171296 6.15293 0.236111C6.2075 0.291667 6.23479 0.37037 6.23479 0.472222V0.986111C6.23479 1.10648 6.22569 1.2037 6.2075 1.27778C6.18931 1.35185 6.16202 1.43519 6.12564 1.52778L2.7695 9.51389C2.73312 9.58796 2.68309 9.66667 2.61943 9.75C2.56486 9.82407 2.483 9.86111 2.37386 9.86111H1.63714Z" fill="white"/>
<path d="M10.9238 10C10.2962 10 9.76413 9.90278 9.32756 9.70833C8.90008 9.50463 8.54991 9.22685 8.27705 8.875C8.0042 8.52315 7.8041 8.12037 7.67677 7.66667C7.55853 7.21296 7.49032 6.73148 7.47213 6.22222C7.46303 5.97222 7.45394 5.70833 7.44484 5.43056C7.44484 5.15278 7.44484 4.87037 7.44484 4.58333C7.45394 4.2963 7.46303 4.02315 7.47213 3.76389C7.48122 3.25463 7.54944 2.77315 7.67677 2.31944C7.8132 1.86574 8.01784 1.46759 8.2907 1.125C8.56355 0.773148 8.91372 0.5 9.3412 0.305556C9.77777 0.101852 10.3053 0 10.9238 0C11.5513 0 12.0789 0.101852 12.5063 0.305556C12.9429 0.5 13.2976 0.773148 13.5705 1.125C13.8433 1.46759 14.0434 1.86574 14.1708 2.31944C14.3072 2.77315 14.38 3.25463 14.3891 3.76389C14.3982 4.02315 14.4027 4.2963 14.4027 4.58333C14.4118 4.87037 14.4118 5.15278 14.4027 5.43056C14.4027 5.70833 14.3982 5.97222 14.3891 6.22222C14.38 6.73148 14.3072 7.21296 14.1708 7.66667C14.0434 8.12037 13.8433 8.52315 13.5705 8.875C13.3067 9.22685 12.9566 9.50463 12.52 9.70833C12.0925 9.90278 11.5604 10 10.9238 10ZM10.9238 8.80556C11.6332 8.80556 12.1562 8.56945 12.4927 8.09722C12.8383 7.625 13.0157 6.97685 13.0248 6.15278C13.043 5.88426 13.0521 5.625 13.0521 5.375C13.0521 5.11574 13.0521 4.86111 13.0521 4.61111C13.0521 4.35185 13.043 4.09722 13.0248 3.84722C13.0157 3.04167 12.8383 2.39815 12.4927 1.91667C12.1562 1.42593 11.6332 1.18056 10.9238 1.18056C10.2234 1.18056 9.70046 1.42593 9.35484 1.91667C9.01832 2.39815 8.84096 3.04167 8.82277 3.84722C8.82277 4.09722 8.81822 4.35185 8.80913 4.61111C8.80913 4.86111 8.80913 5.11574 8.80913 5.375C8.81822 5.625 8.82277 5.88426 8.82277 6.15278C8.84096 6.97685 9.02287 7.625 9.36848 8.09722C9.7141 8.56945 10.2325 8.80556 10.9238 8.80556Z" fill="white"/>
<path d="M16.7461 9.86111C16.5551 9.86111 16.4596 9.76852 16.4596 9.58333C16.4596 9.52778 16.4778 9.47685 16.5141 9.43056L23.2537 0.402778C23.3174 0.319444 23.3765 0.254629 23.4311 0.208333C23.4947 0.162037 23.5857 0.138889 23.7039 0.138889H24.1541C24.3451 0.138889 24.4406 0.231482 24.4406 0.416667C24.4406 0.472222 24.4225 0.523148 24.3861 0.569444L17.6601 9.59722C17.5965 9.68056 17.5328 9.74537 17.4691 9.79167C17.4146 9.83796 17.3236 9.86111 17.1963 9.86111H16.7461ZM22.9945 9.94444C22.4033 9.94444 21.9349 9.77315 21.5893 9.43056C21.2528 9.08796 21.0663 8.63889 21.0299 8.08333C21.0208 7.84259 21.0163 7.63889 21.0163 7.47222C21.0163 7.2963 21.0208 7.0787 21.0299 6.81944C21.0663 6.26389 21.2437 5.81482 21.562 5.47222C21.8894 5.12037 22.3669 4.94444 22.9945 4.94444C23.6312 4.94444 24.1087 5.12037 24.427 5.47222C24.7544 5.81482 24.9363 6.26389 24.9727 6.81944C24.9909 7.0787 25 7.2963 25 7.47222C25 7.63889 24.9909 7.84259 24.9727 8.08333C24.9363 8.63889 24.7453 9.08796 24.3997 9.43056C24.0632 9.77315 23.5948 9.94444 22.9945 9.94444ZM22.9945 9.02778C23.2401 9.02778 23.4311 8.97685 23.5675 8.875C23.7039 8.77315 23.804 8.64815 23.8676 8.5C23.9313 8.34259 23.9677 8.18519 23.9768 8.02778C23.995 7.77778 24.0041 7.5787 24.0041 7.43055C24.0041 7.28241 23.995 7.09722 23.9768 6.875C23.9677 6.625 23.8904 6.39352 23.7449 6.18056C23.5993 5.96759 23.3492 5.86111 22.9945 5.86111C22.6489 5.86111 22.4033 5.96759 22.2578 6.18056C22.1214 6.39352 22.044 6.625 22.0259 6.875C22.0168 7.09722 22.0122 7.28241 22.0122 7.43055C22.0122 7.5787 22.0168 7.77778 22.0259 8.02778C22.044 8.18519 22.0804 8.34259 22.135 8.5C22.1987 8.64815 22.2987 8.77315 22.4351 8.875C22.5807 8.97685 22.7671 9.02778 22.9945 9.02778ZM17.8921 5.01389C17.2918 5.01389 16.8234 4.85185 16.4869 4.52778C16.1503 4.2037 15.9639 3.76389 15.9275 3.20833C15.9184 2.96759 15.9139 2.76389 15.9139 2.59722C15.9139 2.4213 15.9184 2.2037 15.9275 1.94444C15.9548 1.38889 16.1321 0.939815 16.4596 0.597222C16.787 0.24537 17.2645 0.0694444 17.8921 0.0694444C18.5287 0.0694444 19.0062 0.24537 19.3246 0.597222C19.652 0.939815 19.8294 1.38889 19.8566 1.94444C19.8748 2.2037 19.8839 2.4213 19.8839 2.59722C19.8839 2.76389 19.8748 2.96759 19.8566 3.20833C19.8294 3.76389 19.6429 4.2037 19.2973 4.52778C18.9608 4.85185 18.4924 5.01389 17.8921 5.01389ZM17.8921 4.15278C18.1285 4.15278 18.315 4.10185 18.4514 4C18.597 3.89815 18.7015 3.77315 18.7652 3.625C18.8289 3.46759 18.8653 3.31019 18.8744 3.15278C18.8925 2.90278 18.9016 2.70833 18.9016 2.56944C18.9016 2.4213 18.8925 2.23148 18.8744 2C18.8653 1.75 18.7834 1.51852 18.6288 1.30556C18.4833 1.09259 18.2377 0.986111 17.8921 0.986111C17.5465 0.986111 17.3009 1.09259 17.1554 1.30556C17.0189 1.51852 16.9416 1.75 16.9234 2C16.9143 2.23148 16.9098 2.4213 16.9098 2.56944C16.9098 2.70833 16.9143 2.90278 16.9234 3.15278C16.9416 3.31019 16.978 3.46759 17.0326 3.625C17.0962 3.77315 17.1963 3.89815 17.3327 4C17.4691 4.10185 17.6556 4.15278 17.8921 4.15278Z" fill="white"/>
</svg>
