<svg width="8" height="14" viewBox="0 0 8 14" fill="none" xmlns="http://www.w3.org/2000/svg">
<path d="M6.58228 0.940299H5.97468V0.522387C5.97468 0.208954 5.77215 0 5.46835 0H2.53165C2.22785 0 2.02532 0.208954 2.02532 0.522387V0.940299H1.41772C0.607589 0.940299 0 1.56716 0 2.50746V12.4328C0 13.2687 0.607589 14 1.41772 14H6.58228C7.39241 14 8 13.2687 8 12.4328V2.50746C8 1.67164 7.39241 0.940299 6.58228 0.940299ZM6.88607 2.50746V7.31343H1.1139V2.50746C1.1139 2.29851 1.21518 2.08955 1.41772 2.08955H6.58228C6.68355 2.08955 6.88607 2.29851 6.88607 2.50746Z" fill="white"/>
</svg>
