<svg width="12" height="12" viewBox="0 0 12 12" fill="none" xmlns="http://www.w3.org/2000/svg">
<path d="M6 12C7.18669 12 8.34673 11.6481 9.33342 10.9888C10.3201 10.3295 11.0892 9.39246 11.5433 8.2961C11.9974 7.19975 12.1162 5.99335 11.8847 4.82946C11.6532 3.66558 11.0818 2.59648 10.2426 1.75736C9.40353 0.918247 8.33443 0.346802 7.17054 0.115291C6.00666 -0.11622 4.80026 0.00259968 3.7039 0.456726C2.60754 0.910851 1.67047 1.67989 1.01118 2.66658C0.351894 3.65328 0 4.81332 0 6C0 6.992 0.24 7.92667 0.666667 8.75134L0 12L3.24867 11.3333C4.07267 11.7593 5.00867 12 6 12Z" stroke="white" stroke-linecap="round" stroke-linejoin="round"/>
</svg>
