<svg width="22" height="20" viewBox="0.060394287109375 0.234375 21.87921142578125 19.53125" fill="none" xmlns="http://www.w3.org/2000/svg">
<path d="M16.0669 1.57113C16.6388 1.57065 17.2051 1.68435 17.7326 1.90558C18.26 2.1268 18.738 2.4511 19.1384 2.85945C19.9636 3.69716 20.4261 4.82584 20.4261 6.0017C20.4261 7.17757 19.9636 8.30625 19.1384 9.14396L11 17.3845L2.86157 9.14396C2.0364 8.30625 1.57387 7.17757 1.57387 6.0017C1.57387 4.82584 2.0364 3.69716 2.86157 2.85945C3.26228 2.45139 3.74029 2.12727 4.26766 1.90601C4.79504 1.68475 5.36121 1.57079 5.93312 1.57079C6.50503 1.57079 7.07121 1.68475 7.59859 1.90601C8.12596 2.12727 8.60397 2.45139 9.00468 2.85945L11 4.90192L12.9875 2.87516C13.3867 2.46194 13.8652 2.13348 14.3943 1.90942C14.9234 1.68536 15.4923 1.5703 16.0669 1.57113ZM16.0669 2.10755e-06C15.2857 -0.000659903 14.5123 0.154644 13.792 0.456809C13.0716 0.758973 12.4189 1.20192 11.872 1.75966L11 2.63949L10.128 1.75966C9.58045 1.20292 8.92753 0.760748 8.20732 0.45892C7.48711 0.157092 6.71402 0.00164766 5.93312 0.00164766C5.15223 0.00164766 4.37914 0.157092 3.65893 0.45892C2.93872 0.760748 2.2858 1.20292 1.73822 1.75966C0.624195 2.89372 0 4.41986 0 6.00956C0 7.59926 0.624195 9.1254 1.73822 10.2595L11 19.6391L20.2618 10.2595C21.3758 9.1254 22 7.59926 22 6.00956C22 4.41986 21.3758 2.89372 20.2618 1.75966C19.7144 1.20262 19.0615 0.760147 18.3413 0.458033C17.6211 0.15592 16.8479 0.000216892 16.0669 2.10755e-06Z" fill="white"/>
</svg>
