<svg width="19" height="19" viewBox="0.125 0.125 18.75 18.75" fill="none" xmlns="http://www.w3.org/2000/svg">
<path d="M9.5 19C11.3789 19 13.2156 18.4428 14.7779 17.399C16.3402 16.3551 17.5578 14.8714 18.2769 13.1355C18.9959 11.3996 19.184 9.48947 18.8175 7.64665C18.4509 5.80383 17.5461 4.11109 16.2175 2.78249C14.8889 1.45389 13.1962 0.549104 11.3534 0.182544C9.51054 -0.184015 7.60041 0.00411615 5.86451 0.723149C4.12861 1.44218 2.64491 2.65982 1.60104 4.22209C0.557165 5.78435 0 7.62108 0 9.5C0 11.0707 0.38 12.5506 1.05556 13.8563L0 19L5.14372 17.9444C6.44839 18.6189 7.93039 19 9.5 19Z" stroke="white" stroke-linecap="round" stroke-linejoin="round"/>
</svg>
