<svg width="3" height="17" viewBox="0.1328125 0.296875 2.734375 16.40625" fill="none" xmlns="http://www.w3.org/2000/svg">
<path d="M0 1.41667C0 1.79239 0.149255 2.15273 0.414932 2.4184C0.680608 2.68408 1.04094 2.83333 1.41667 2.83333C1.79239 2.83333 2.15272 2.68408 2.4184 2.4184C2.68408 2.15273 2.83333 1.79239 2.83333 1.41667C2.83333 1.04094 2.68408 0.680609 2.4184 0.414932C2.15272 0.149256 1.79239 0 1.41667 0C1.04094 0 0.680608 0.149256 0.414932 0.414932C0.149255 0.680609 0 1.04094 0 1.41667ZM0 8.5C0 8.87572 0.149255 9.23606 0.414932 9.50173C0.680608 9.76741 1.04094 9.91667 1.41667 9.91667C1.79239 9.91667 2.15272 9.76741 2.4184 9.50173C2.68408 9.23606 2.83333 8.87572 2.83333 8.5C2.83333 8.12428 2.68408 7.76394 2.4184 7.49827C2.15272 7.23259 1.79239 7.08333 1.41667 7.08333C1.04094 7.08333 0.680608 7.23259 0.414932 7.49827C0.149255 7.76394 0 8.12428 0 8.5ZM0 15.5833C0 15.9591 0.149255 16.3194 0.414932 16.5851C0.680608 16.8507 1.04094 17 1.41667 17C1.79239 17 2.15272 16.8507 2.4184 16.5851C2.68408 16.3194 2.83333 15.9591 2.83333 15.5833C2.83333 15.2076 2.68408 14.8473 2.4184 14.5816C2.15272 14.3159 1.79239 14.1667 1.41667 14.1667C1.04094 14.1667 0.680608 14.3159 0.414932 14.5816C0.149255 14.8473 0 15.2076 0 15.5833Z" fill="white"/>
</svg>
