<svg width="15" height="13" viewBox="0.4986419677734375 0.25 14.002716064453125 12.5" fill="none" xmlns="http://www.w3.org/2000/svg">
<path d="M10.6354 1.04C11.014 1.03968 11.3889 1.11495 11.738 1.26139C12.0871 1.40783 12.4035 1.62249 12.6686 1.8928C13.2148 2.44732 13.521 3.19444 13.521 3.9728C13.521 4.75116 13.2148 5.49828 12.6686 6.0528L7.2814 11.5076L1.89421 6.0528C1.34799 5.49828 1.04182 4.75116 1.04182 3.9728C1.04182 3.19444 1.34799 2.44732 1.89421 1.8928C2.15945 1.62269 2.47587 1.40813 2.82496 1.26167C3.17405 1.11521 3.54883 1.03978 3.92741 1.03978C4.30598 1.03978 4.68076 1.11521 5.02985 1.26167C5.37895 1.40813 5.69536 1.62269 5.96061 1.8928L7.2814 3.2448L8.597 1.9032C8.86129 1.62967 9.17802 1.41225 9.52826 1.26393C9.8785 1.11562 10.2551 1.03946 10.6354 1.04ZM10.6354 1.39508e-06C10.1183 -0.00043682 9.60637 0.102366 9.12954 0.302382C8.65272 0.502399 8.22063 0.795602 7.85861 1.1648L7.2814 1.7472L6.70421 1.1648C6.34174 0.796268 5.90954 0.503574 5.4328 0.30378C4.95606 0.103987 4.44432 0.00109066 3.92741 0.00109066C3.41049 0.00109066 2.89875 0.103987 2.42201 0.30378C1.94527 0.503574 1.51307 0.796268 1.15061 1.1648C0.413183 1.91549 0 2.92571 0 3.978C0 5.0303 0.413183 6.04052 1.15061 6.7912L7.2814 13L13.4122 6.7912C14.1496 6.04052 14.5628 5.0303 14.5628 3.978C14.5628 2.92571 14.1496 1.91549 13.4122 1.1648C13.0498 0.796071 12.6177 0.503176 12.1409 0.303193C11.6642 0.103211 11.1524 0.000143571 10.6354 1.39508e-06Z" fill="white"/>
</svg>
