<svg width="15" height="15" viewBox="0 0 15 15" fill="none" xmlns="http://www.w3.org/2000/svg">
<path d="M5.75001 0C4.82207 0.00105043 3.93244 0.370137 3.27629 1.02629C2.62014 1.68244 2.25106 2.57206 2.25001 3.5V5.99003C2.25032 6.40829 2.35525 6.81982 2.55526 7.18716L3.41322 8.76006L1.1375 10.2393C0.787756 10.4657 0.500373 10.7762 0.301652 11.1424C0.102931 11.5086 -0.000781687 11.9187 4.43589e-06 12.3354V15H9.00001V14H1V12.3354C0.999537 12.0854 1.06177 11.8393 1.18101 11.6196C1.30025 11.3998 1.47268 11.2135 1.68254 11.0777L4.73441 9.09397L3.43316 6.70831C3.31316 6.48791 3.2502 6.24099 3.25001 5.99003V3.5C3.25001 2.83696 3.5134 2.20107 3.98224 1.73223C4.45108 1.26339 5.08696 1 5.75001 1C6.41305 1 7.04893 1.26339 7.51777 1.73223C7.98661 2.20107 8.25001 2.83696 8.25001 3.5V5.99003C8.24981 6.24099 8.18685 6.48791 8.06685 6.70831L6.76563 9.09397L9.00001 10.5463V9.35366L8.08679 8.75991L8.94476 7.18697C9.14474 6.81969 9.24967 6.40822 9.25001 5.99003V3.5C9.24896 2.57206 8.87987 1.68244 8.22372 1.02629C7.56757 0.370137 6.67794 0.00105043 5.75001 0ZM12.5 12V10H11.5V12H9.50001V13H11.5V15H12.5V13H14.5V12H12.5Z" fill="white"/>
</svg>
